<svg width="23" height="23" viewBox="0 0 23 23" fill="none" xmlns="http://www.w3.org/2000/svg">
<path d="M11.0715 7.91072C10.1953 7.91072 9.35504 8.25878 8.7355 8.87832C8.11596 9.49786 7.7679 10.3381 7.7679 11.2143C7.7679 12.0905 8.11596 12.9307 8.7355 13.5503C9.35504 14.1698 10.1953 14.5179 11.0715 14.5179C11.9476 14.5179 12.7879 14.1698 13.4075 13.5503C14.027 12.9307 14.375 12.0905 14.375 11.2143C14.375 10.3381 14.027 9.49786 13.4075 8.87832C12.7879 8.25878 11.9476 7.91072 11.0715 7.91072ZM11.0715 5.70834C12.5317 5.70834 13.9322 6.28843 14.9648 7.321C15.9973 8.35357 16.5774 9.75403 16.5774 11.2143C16.5774 12.6746 15.9973 14.075 14.9648 15.1076C13.9322 16.1402 12.5317 16.7202 11.0715 16.7202C9.6112 16.7202 8.21074 16.1402 7.17818 15.1076C6.14561 14.075 5.56552 12.6746 5.56552 11.2143C5.56552 9.75403 6.14561 8.35357 7.17818 7.321C8.21074 6.28843 9.6112 5.70834 11.0715 5.70834ZM18.2292 5.43305C18.2292 5.79811 18.0842 6.14823 17.826 6.40637C17.5679 6.66451 17.2178 6.80953 16.8527 6.80953C16.4877 6.80953 16.1375 6.66451 15.8794 6.40637C15.6213 6.14823 15.4762 5.79811 15.4762 5.43305C15.4762 5.06798 15.6213 4.71786 15.8794 4.45972C16.1375 4.20158 16.4877 4.05656 16.8527 4.05656C17.2178 4.05656 17.5679 4.20158 17.826 4.45972C18.0842 4.71786 18.2292 5.06798 18.2292 5.43305ZM11.0715 2.40477C8.34713 2.40477 7.90225 2.41248 6.63478 2.46864C5.77144 2.50939 5.19222 2.62501 4.65484 2.83424C4.17692 3.01924 3.83225 3.24058 3.46555 3.60837C3.12089 3.94137 2.85588 4.34792 2.69031 4.79766C2.48109 5.33724 2.36546 5.91537 2.32582 6.7776C2.26856 7.99331 2.26195 8.41837 2.26195 11.2143C2.26195 13.9386 2.26966 14.3835 2.32582 15.651C2.36656 16.5132 2.48219 17.0936 2.69031 17.6298C2.87752 18.1088 3.09775 18.4535 3.46335 18.8191C3.83445 19.1891 4.17912 19.4105 4.65264 19.5933C5.19662 19.8036 5.77585 19.9203 6.63478 19.9599C7.85049 20.0172 8.27555 20.0238 11.0715 20.0238C13.7958 20.0238 14.2407 20.0161 15.5082 19.9599C16.3693 19.9192 16.9496 19.8036 17.487 19.5955C17.9638 19.4094 18.3107 19.188 18.6763 18.8224C19.0474 18.4513 19.2687 18.1066 19.4515 17.6331C19.6608 17.0902 19.7775 16.5099 19.8171 15.651C19.8744 14.4353 19.881 14.0102 19.881 11.2143C19.881 8.48995 19.8733 8.04507 19.8171 6.7776C19.7764 5.91647 19.6608 5.33504 19.4515 4.79766C19.2856 4.34838 19.021 3.94199 18.6774 3.60837C18.3445 3.26353 17.938 2.9985 17.4881 2.83314C16.9485 2.62391 16.3693 2.50829 15.5082 2.46864C14.2925 2.41138 13.8674 2.40477 11.0715 2.40477ZM11.0715 0.202393C14.0634 0.202393 14.4367 0.213404 15.6106 0.268464C16.7833 0.323523 17.5817 0.507422 18.2843 0.780518C19.0111 1.06022 19.6233 1.43903 20.2356 2.05019C20.7955 2.60067 21.2288 3.26655 21.5053 4.0015C21.7772 4.70296 21.9622 5.50242 22.0173 6.67519C22.0691 7.84906 22.0834 8.22236 22.0834 11.2143C22.0834 14.2062 22.0724 14.5795 22.0173 15.7534C21.9622 16.9262 21.7772 17.7245 21.5053 18.4271C21.2296 19.1624 20.7962 19.8285 20.2356 20.3784C19.6849 20.9382 19.0191 21.3714 18.2843 21.6481C17.5828 21.9201 16.7833 22.1051 15.6106 22.1601C14.4367 22.2119 14.0634 22.2262 11.0715 22.2262C8.07954 22.2262 7.70624 22.2152 6.53237 22.1601C5.3596 22.1051 4.56124 21.9201 3.85868 21.6481C3.12344 21.3722 2.45744 20.9388 1.90737 20.3784C1.34731 19.828 0.914018 19.1621 0.637695 18.4271C0.3646 17.7256 0.180701 16.9262 0.125642 15.7534C0.0738857 14.5795 0.0595703 14.2062 0.0595703 11.2143C0.0595703 8.22236 0.0705822 7.84906 0.125642 6.67519C0.180701 5.50132 0.3646 4.70406 0.637695 4.0015C0.913253 3.2661 1.34665 2.60004 1.90737 2.05019C2.4576 1.48994 3.12355 1.05662 3.85868 0.780518C4.56124 0.507422 5.3585 0.323523 6.53237 0.268464C7.70624 0.216708 8.07954 0.202393 11.0715 0.202393Z" fill="white"/>
</svg>
