<svg width="18" height="18" viewBox="0 0 18 18" fill="none" xmlns="http://www.w3.org/2000/svg">
<path d="M14.0258 12.3475L17.595 15.9158L16.4158 17.095L12.8475 13.5258C11.5197 14.5901 9.86829 15.169 8.16663 15.1666C4.02663 15.1666 0.666626 11.8066 0.666626 7.66663C0.666626 3.52663 4.02663 0.166626 8.16663 0.166626C12.3066 0.166626 15.6666 3.52663 15.6666 7.66663C15.669 9.36829 15.0901 11.0197 14.0258 12.3475ZM12.3541 11.7291C13.4117 10.6415 14.0023 9.18365 14 7.66663C14 4.44329 11.3891 1.83329 8.16663 1.83329C4.94329 1.83329 2.33329 4.44329 2.33329 7.66663C2.33329 10.8891 4.94329 13.5 8.16663 13.5C9.68365 13.5023 11.1415 12.9117 12.2291 11.8541L12.3541 11.7291V11.7291Z" fill="white"/>
</svg>
