<svg width="24" height="19" viewBox="0 0 24 19" fill="none" xmlns="http://www.w3.org/2000/svg">
<path d="M23.4046 2.2283C22.5639 2.60017 21.6723 2.84439 20.7595 2.95289C21.7217 2.37744 22.4418 1.4718 22.7857 0.404733C21.8827 0.942114 20.8927 1.31872 19.8609 1.52244C19.1678 0.780877 18.2492 0.289068 17.2477 0.123473C16.2463 -0.0421228 15.2182 0.127774 14.3233 0.60675C13.4284 1.08573 12.7168 1.84694 12.2992 2.77206C11.8815 3.69718 11.7812 4.73437 12.0138 5.72238C10.1827 5.6306 8.39128 5.15474 6.75597 4.3257C5.12065 3.49666 3.67796 2.33297 2.52157 0.91018C2.11225 1.61324 1.89715 2.41245 1.8983 3.22598C1.8983 4.82271 2.71098 6.23333 3.94651 7.05923C3.21533 7.03621 2.50025 6.83875 1.86086 6.4833V6.54057C1.86108 7.60399 2.22906 8.63461 2.90242 9.45769C3.57577 10.2808 4.51306 10.8456 5.55535 11.0565C4.8766 11.2405 4.16489 11.2676 3.4741 11.1358C3.76798 12.0512 4.34075 12.8517 5.11223 13.4253C5.8837 13.999 6.81526 14.3169 7.77645 14.3348C6.82115 15.0851 5.72733 15.6397 4.55754 15.9669C3.38775 16.2942 2.16493 16.3877 0.958984 16.2421C3.06413 17.5959 5.51472 18.3146 8.01761 18.3123C16.4891 18.3123 21.1218 11.2944 21.1218 5.20813C21.1218 5.00991 21.1163 4.80949 21.1075 4.61348C22.0092 3.96176 22.7874 3.15443 23.4057 2.22941L23.4046 2.2283Z" fill="white"/>
</svg>
