<svg width="54" height="53" viewBox="0 0 54 53" fill="none" xmlns="http://www.w3.org/2000/svg">
<path d="M27.0015 23.8754V16.0004L37.5015 26.5004L27.0015 37.0004V29.1254H16.5015V23.8754H27.0015ZM27.0015 0.250366C41.4915 0.250366 53.2515 12.0104 53.2515 26.5004C53.2515 40.9904 41.4915 52.7504 27.0015 52.7504C12.5115 52.7504 0.751465 40.9904 0.751465 26.5004C0.751465 12.0104 12.5115 0.250366 27.0015 0.250366ZM27.0015 47.5004C38.604 47.5004 48.0015 38.1029 48.0015 26.5004C48.0015 14.8979 38.604 5.50037 27.0015 5.50037C15.399 5.50037 6.00146 14.8979 6.00146 26.5004C6.00146 38.1029 15.399 47.5004 27.0015 47.5004Z" fill="#59595B"/>
</svg>
