<svg width="23" height="19" viewBox="0 0 23 19" fill="none" xmlns="http://www.w3.org/2000/svg">
<path d="M22.2944 3.15556C22.7976 5.11788 22.7976 9.21431 22.7976 9.21431C22.7976 9.21431 22.7976 13.3107 22.2944 15.2731C22.0147 16.3577 21.1965 17.2112 20.1603 17.4997C18.2783 18.0238 11.7857 18.0238 11.7857 18.0238C11.7857 18.0238 5.29639 18.0238 3.41115 17.4997C2.37053 17.2067 1.55345 16.3544 1.27705 15.2731C0.773804 13.3107 0.773804 9.21431 0.773804 9.21431C0.773804 9.21431 0.773804 5.11788 1.27705 3.15556C1.55675 2.07089 2.37493 1.21746 3.41115 0.928952C5.29639 0.404785 11.7857 0.404785 11.7857 0.404785C11.7857 0.404785 18.2783 0.404785 20.1603 0.928952C21.2009 1.22187 22.018 2.07419 22.2944 3.15556ZM9.58333 13.0685L16.1905 9.21431L9.58333 5.36014V13.0685Z" fill="white"/>
</svg>
