<svg width="53" height="53" viewBox="0 0 53 53" fill="none" xmlns="http://www.w3.org/2000/svg">
<path d="M26.4985 23.8754V16.0004L15.9985 26.5004L26.4985 37.0004V29.1254H36.9985V23.8754H26.4985ZM26.4985 0.250366C12.0085 0.250366 0.24854 12.0104 0.24854 26.5004C0.24854 40.9904 12.0085 52.7504 26.4985 52.7504C40.9885 52.7504 52.7485 40.9904 52.7485 26.5004C52.7485 12.0104 40.9885 0.250366 26.4985 0.250366ZM26.4985 47.5004C14.896 47.5004 5.49854 38.1029 5.49854 26.5004C5.49854 14.8979 14.896 5.50037 26.4985 5.50037C38.101 5.50037 47.4985 14.8979 47.4985 26.5004C47.4985 38.1029 38.101 47.5004 26.4985 47.5004Z" fill="#59595B"/>
</svg>
